<?xml version="1.0" standalone="no"?>
<!DOCTYPE svg PUBLIC "-//W3C//DTD SVG 20010904//EN"
 "http://www.w3.org/TR/2001/REC-SVG-20010904/DTD/svg10.dtd">
<svg version="1.0" xmlns="http://www.w3.org/2000/svg"
 width="1024.000000pt" height="1024.000000pt" viewBox="0 0 1024.000000 1024.000000"
 preserveAspectRatio="xMidYMid meet">
<metadata>
Created by potrace 1.14, written by Peter Selinger 2001-2017
</metadata>
<g transform="translate(0.000000,1024.000000) scale(0.100000,-0.100000)"
fill="#000000" stroke="none">
<path d="M1641 6649 c-180 -27 -307 -113 -372 -254 -61 -130 -60 -101 -56
-1293 2 -963 5 -1093 19 -1139 52 -169 151 -269 328 -330 71 -25 683 -31 786
-8 157 35 276 122 332 243 50 109 54 141 59 438 5 277 5 282 -16 303 -20 20
-31 21 -234 21 -155 0 -218 -3 -229 -12 -14 -11 -17 -43 -20 -208 -3 -175 -5
-199 -24 -230 -33 -58 -59 -65 -234 -65 -170 0 -190 6 -227 62 -17 25 -18 87
-21 939 -2 716 0 919 10 950 8 24 26 47 47 61 32 22 44 23 193 23 247 0 250
-4 256 -290 2 -110 9 -200 14 -207 8 -10 67 -13 234 -13 l224 0 16 25 c14 22
16 57 11 297 -5 293 -11 339 -64 447 -33 68 -116 151 -184 184 -113 55 -150
60 -479 63 -168 1 -334 -2 -369 -7z"/>
<path d="M3218 6650 c-17 -10 -18 -93 -18 -1513 0 -1156 3 -1506 12 -1515 19
-19 1030 -17 1120 3 104 22 186 65 252 134 64 68 100 138 121 238 19 89 22
890 3 944 -29 86 -117 166 -202 185 -28 6 -27 7 25 25 68 24 116 63 154 124
l30 48 3 431 c2 365 0 443 -13 511 -40 196 -157 321 -346 371 -55 15 -134 18
-594 21 -360 2 -536 0 -547 -7z m932 -515 c62 -32 65 -50 65 -365 0 -398 14
-380 -295 -380 l-200 0 0 380 0 380 200 0 c160 0 207 -3 230 -15z m25 -1296
c44 -48 48 -82 43 -384 -3 -261 -7 -279 -61 -319 -26 -19 -44 -21 -233 -24
l-204 -3 0 386 0 386 211 -3 211 -3 33 -36z"/>
<path d="M5585 6644 c-159 -29 -278 -112 -340 -237 -62 -127 -65 -154 -65
-720 0 -551 1 -557 55 -593 14 -9 234 -85 488 -169 l462 -152 0 -279 c0 -383
2 -379 -245 -379 -232 0 -240 10 -240 282 0 145 -3 183 -16 201 -15 22 -19 22
-243 22 -213 0 -229 -1 -245 -19 -16 -18 -17 -43 -13 -303 3 -218 8 -295 20
-337 54 -182 179 -297 367 -337 94 -20 648 -19 743 1 151 32 260 108 319 222
67 128 68 140 68 717 0 549 0 545 -48 589 -11 10 -228 87 -483 170 l-464 153
-3 287 c-3 319 -1 330 61 367 28 17 51 20 180 20 236 0 239 -4 245 -288 4
-182 5 -193 25 -207 32 -23 433 -22 465 1 22 15 22 17 22 282 0 289 -9 358
-54 458 -50 109 -166 202 -302 240 -84 24 -640 30 -759 8z"/>
<path d="M7181 6641 l-21 -21 0 -1489 c0 -1341 2 -1491 16 -1505 14 -14 76
-16 532 -16 567 0 598 3 719 59 78 37 158 116 195 193 59 122 58 85 58 1269 0
1049 -1 1088 -20 1163 -26 103 -62 167 -130 229 -63 58 -116 88 -205 113 -53
16 -123 18 -592 22 -526 3 -532 3 -552 -17z m949 -516 c51 -45 50 -19 50 -996
0 -822 -2 -914 -16 -945 -30 -62 -54 -69 -281 -72 l-203 -3 0 1021 0 1021 214
-3 c197 -3 216 -5 236 -23z"/>
</g>
</svg>
